<mxfile host="app.diagrams.net" agent="Mozilla/5.0 (Macintosh; Intel Mac OS X 10_15_7) AppleWebKit/537.36 (KHTML, like Gecko) Chrome/135.0.0.0 Safari/537.36" version="26.2.13">
  <diagram name="第 1 页" id="iC6CyAPzZbLOwijpjETG">
    <mxGraphModel dx="2063" dy="774" grid="1" gridSize="10" guides="1" tooltips="1" connect="1" arrows="1" fold="1" page="1" pageScale="1" pageWidth="827" pageHeight="1169" math="0" shadow="0">
      <root>
        <mxCell id="0" />
        <mxCell id="1" parent="0" />
        <mxCell id="7IOeA00xIf0nR3ID2Mz7-3" value="" style="group" vertex="1" connectable="0" parent="1">
          <mxGeometry x="-190" y="240" width="1000" height="120" as="geometry" />
        </mxCell>
        <mxCell id="7IOeA00xIf0nR3ID2Mz7-1" value="" style="curved=1;endArrow=open;html=1;rounded=0;strokeWidth=15;fillColor=#dae8fc;strokeColor=#3333FF;endSize=0;startSize=0;endFill=0;" edge="1" parent="7IOeA00xIf0nR3ID2Mz7-3">
          <mxGeometry width="50" height="50" relative="1" as="geometry">
            <mxPoint x="60" as="sourcePoint" />
            <mxPoint x="1000" y="120" as="targetPoint" />
            <Array as="points">
              <mxPoint x="450" />
              <mxPoint x="560" y="18.947368421052634" />
              <mxPoint y="82.10526315789474" />
              <mxPoint x="140" y="120" />
              <mxPoint x="600" y="120" />
              <mxPoint x="800" y="120" />
            </Array>
          </mxGeometry>
        </mxCell>
        <mxCell id="7IOeA00xIf0nR3ID2Mz7-2" value="" style="curved=1;endArrow=classic;html=1;rounded=0;strokeWidth=1;dashed=1;strokeColor=#F8CECC;" edge="1" parent="7IOeA00xIf0nR3ID2Mz7-3">
          <mxGeometry width="50" height="50" relative="1" as="geometry">
            <mxPoint x="60" as="sourcePoint" />
            <mxPoint x="1000" y="120" as="targetPoint" />
            <Array as="points">
              <mxPoint x="450" />
              <mxPoint x="560" y="18.947368421052634" />
              <mxPoint y="82.10526315789474" />
              <mxPoint x="140" y="120" />
              <mxPoint x="600" y="120" />
              <mxPoint x="800" y="120" />
            </Array>
          </mxGeometry>
        </mxCell>
      </root>
    </mxGraphModel>
  </diagram>
</mxfile>
